HIERARCHY
ROOT root
{
	OFFSET 0.000000 0.000000 0.000000
	CHANNELS 6 Xposition Yposition Zposition Zrotation Yrotation Xrotation
	JOINT lhip
	{
		OFFSET 0.058581 -0.082280 -0.017664
		CHANNELS 3 Zrotation Yrotation Xrotation
		JOINT lknee
		{
			OFFSET 0.043451 -0.386469 0.008037
			CHANNELS 3 Zrotation Yrotation Xrotation
			JOINT lankle
			{
				OFFSET -0.014790 -0.426874 -0.037428
				CHANNELS 3 Zrotation Yrotation Xrotation
				JOINT ltoe
				{
					OFFSET 0.041054 -0.060286 0.122042
					CHANNELS 3 Zrotation Yrotation Xrotation
					End Site
					{
						OFFSET 0.000000 0.000000 0.000000
					}
				}
			}
		}
	}
	JOINT rhip
	{
		OFFSET -0.060310 -0.090513 -0.013543
		CHANNELS 3 Zrotation Yrotation Xrotation
		JOINT rknee
		{
			OFFSET -0.043257 -0.383688 -0.004843
			CHANNELS 3 Zrotation Yrotation Xrotation
			JOINT rankle
			{
				OFFSET 0.019056 -0.420046 -0.034562
				CHANNELS 3 Zrotation Yrotation Xrotation
				JOINT rtoe
				{
					OFFSET -0.034840 -0.062106 0.130323
					CHANNELS 3 Zrotation Yrotation Xrotation
					End Site
					{
						OFFSET 0.000000 0.000000 0.000000
					}
				}
			}
		}
	}
	JOINT lowerback
	{
		OFFSET 0.004439 0.124404 -0.038385
		CHANNELS 3 Zrotation Yrotation Xrotation
		JOINT upperback
		{
			OFFSET 0.004488 0.137956 0.026820
			CHANNELS 3 Zrotation Yrotation Xrotation
			JOINT chest
			{
				OFFSET -0.002265 0.056032 0.002855
				CHANNELS 3 Zrotation Yrotation Xrotation
				JOINT lowerneck
				{
					OFFSET -0.013390 0.211636 -0.033468
					CHANNELS 3 Zrotation Yrotation Xrotation
					JOINT upperneck
					{
						OFFSET 0.010113 0.088937 0.050410
						CHANNELS 3 Zrotation Yrotation Xrotation
						End Site
						{
							OFFSET 0.000000 0.000000 0.000000
						}
					}
				}
				JOINT lclavicle
				{
					OFFSET 0.071702 0.114000 -0.018898
					CHANNELS 3 Zrotation Yrotation Xrotation
					JOINT lshoulder
					{
						OFFSET 0.122921 0.045205 -0.019046
						CHANNELS 3 Zrotation Yrotation Xrotation
						JOINT lelbow
						{
							OFFSET 0.255332 -0.015649 -0.022946
							CHANNELS 3 Zrotation Yrotation Xrotation
							JOINT lwrist
							{
								OFFSET 0.265709 0.012698 -0.007375
								CHANNELS 3 Zrotation Yrotation Xrotation
								End Site
								{
									OFFSET 0.000000 0.000000 0.000000
								}
							}
						}
					}
				}
				JOINT rclavicle
				{
					OFFSET -0.082954 0.112472 -0.023707
					CHANNELS 3 Zrotation Yrotation Xrotation
					JOINT rshoulder
					{
						OFFSET -0.113228 0.046853 -0.008472
						CHANNELS 3 Zrotation Yrotation Xrotation
						JOINT relbow
						{
							OFFSET -0.260127 -0.014369 -0.031269
							CHANNELS 3 Zrotation Yrotation Xrotation
							JOINT rwrist
							{
								OFFSET -0.269108 0.006794 -0.006027
								CHANNELS 3 Zrotation Yrotation Xrotation
								End Site
								{
									OFFSET 0.000000 0.000000 0.000000
								}
							}
						}
					}
				}
			}
		}
	}
}
MOTION
Frames: 7
Frame Time: 0.033333
0.129870 -0.104441 0.943976 151.418192 3.417562 89.074688 24.811589 15.154091 -1.588373 -0.368402 6.300981 22.985656 -14.680900 0.759331 -7.391863 0.000000 -0.000000 0.000000 3.301966 5.037744 -24.591732 5.329542 1.018247 35.016252 5.388045 10.017368 -15.888596 0.000000 -0.000000 0.000000 -9.520524 -8.137257 19.818537 -0.003933 -23.224536 5.224011 -1.658177 -11.326912 -10.889946 -14.312163 53.411352 1.764452 -1.619364 26.839483 3.260374 25.382982 -61.797915 -33.018357 18.244253 -69.374831 -39.919497 7.163190 -24.195908 2.885415 14.811004 -19.097039 4.886641 -8.028106 22.782476 -15.887977 37.760014 29.750693 -1.173921 -104.900042 38.166918 -71.112343 -49.852962 12.730867 -26.017805 
0.121881 -0.106539 0.944934 152.299358 3.438187 89.257270 24.360727 15.433734 -2.749241 -0.567807 6.763374 23.486574 -13.818193 0.720400 -7.693520 0.000000 -0.000000 0.000000 2.865452 4.626474 -24.879299 5.027791 0.644974 34.549109 5.103109 9.513916 -15.430439 0.000000 -0.000000 0.000000 -9.501151 -7.875536 20.331882 0.279008 -23.222250 5.378921 -1.498670 -11.324328 -10.488920 -14.456852 53.402530 1.614240 -1.737910 26.239059 3.342865 25.032496 -61.332943 -32.395756 16.115680 -69.405999 -38.230799 6.774777 -23.578117 4.180268 13.442546 -17.377464 5.092957 -7.587851 23.011186 -15.551270 39.573866 30.923566 -0.278373 -102.952703 37.731977 -70.223550 -49.577483 10.619041 -27.934421 
0.111805 -0.109016 0.946211 153.625997 3.379069 89.554846 23.572103 15.521608 -4.091818 -0.764251 7.304602 23.637341 -12.905662 0.709039 -8.482312 0.000000 -0.000000 0.000000 2.139259 4.018799 -25.218767 4.732824 0.159422 33.943535 5.717641 9.166710 -14.750578 0.000000 -0.000000 0.000000 -9.354037 -7.414547 21.115815 0.711892 -23.126594 5.210315 -1.226115 -11.450339 -10.002949 -14.146185 52.997327 1.682818 -1.735729 25.886836 3.636343 24.122797 -61.120774 -31.298771 13.340354 -69.635060 -36.018684 6.155628 -22.603546 5.404026 12.528324 -15.940045 5.103886 -6.909482 23.128188 -15.415304 41.927853 31.726304 1.206632 -100.817402 37.222390 -69.406362 -48.898596 8.725109 -29.174023 
0.099963 -0.111810 0.947473 155.410302 3.368061 90.055261 22.759802 15.724394 -5.837351 -1.001751 8.273777 23.680008 -11.817396 0.160233 -8.971358 0.000000 -0.000000 0.000000 1.198463 3.239508 -25.583654 4.433142 -0.782421 32.929367 6.112130 8.764826 -14.033874 0.000000 -0.000000 0.000000 -8.911066 -7.086786 21.674585 1.268850 -23.068676 5.191032 -0.946594 -11.610148 -9.701344 -13.369023 52.681690 2.435390 -1.987360 25.293614 3.968090 22.457702 -60.546496 -29.668718 8.779727 -70.299161 -32.198775 5.560486 -21.053234 7.012978 11.565833 -14.751559 5.129167 -5.723731 23.482865 -14.595082 44.283063 32.654198 2.785745 -98.514352 36.677110 -68.615943 -47.623534 6.857565 -31.582845 
0.086099 -0.115235 0.948791 157.796606 3.355536 90.525382 21.683304 15.663067 -7.973999 -1.328305 8.753982 23.897630 -10.629380 -0.018942 -9.684826 0.000000 -0.000000 0.000000 0.035753 2.029210 -25.808691 4.122401 -2.165760 31.854480 6.501668 8.373578 -13.476008 0.000000 -0.000000 0.000000 -8.458326 -6.408755 22.338102 2.174617 -23.213562 5.467202 -0.424618 -11.659760 -9.230184 -12.504463 51.980011 2.991191 -2.356220 23.953752 4.457054 20.562963 -60.689483 -27.468569 4.841996 -70.249779 -28.982444 4.936541 -19.763750 8.182806 10.365199 -13.618023 4.975548 -4.072820 23.845534 -14.056100 46.488185 33.277412 4.305115 -95.584330 36.371375 -67.361445 -46.638942 5.274582 -33.221900 
0.070733 -0.118963 0.950085 160.817936 3.273940 91.256371 20.403057 14.989307 -10.774477 -1.821548 9.336699 24.520936 -9.389799 -0.226437 -10.458802 0.000000 -0.000000 0.000000 -1.335456 0.660121 -25.938351 3.714975 -4.000245 30.458902 6.894084 7.696879 -12.905693 0.000000 -0.000000 0.000000 -7.795532 -5.612202 22.459655 3.354569 -23.365477 5.855268 0.126584 -11.689408 -8.402797 -11.769985 50.876805 3.843594 -3.010356 22.545175 4.446758 17.710728 -60.372973 -24.326054 0.203180 -70.889435 -25.662417 4.658981 -18.561462 8.495001 8.567553 -11.895531 4.314197 -1.878169 23.941083 -12.440166 48.399103 34.390960 5.664461 -92.737943 35.921187 -66.129489 -45.546158 3.074763 -34.031810 
0.053775 -0.122785 0.951709 164.556144 3.086814 91.657886 18.713779 13.965440 -13.552678 -2.097007 9.338710 25.059673 -8.051270 -0.370692 -10.935257 0.000000 -0.000000 0.000000 -2.903869 -0.889866 -25.506073 3.280398 -5.890654 29.108593 7.272250 6.879971 -12.141169 0.000000 -0.000000 0.000000 -6.841709 -4.467353 22.679833 4.679777 -23.588233 6.829101 0.968008 -11.749747 -7.918247 -10.999844 48.804573 4.630247 -3.529827 20.646810 4.575832 15.849020 -60.715638 -22.477870 -7.919327 -70.707707 -18.796971 4.296467 -16.657261 9.093238 8.662266 -10.898836 4.223421 0.158115 24.707327 -11.082109 50.421404 33.999320 7.012274 -90.231561 35.379996 -65.729391 -44.292620 0.858424 -35.952232 
